<?xml version="1.0" encoding="UTF-8"?>
<svg id="Layer_1" xmlns="http://www.w3.org/2000/svg" version="1.1" viewBox="0 0 1151.92 841.6">
  <!-- Generator: Adobe Illustrator 29.5.0, SVG Export Plug-In . SVG Version: 2.1.0 Build 137)  -->
  <defs>
    <style>
      .st0 {
        stroke: #000;
        stroke-miterlimit: 10;
        stroke-width: 5px;
      }
    </style>
  </defs>
  <path class="st0" d="M789.65,6.72c4.29,5.41-2.54,18.04-3.82,24.86-4.76,17.15-9.34,34.76-10.9,52.49-.51,17.11-4.35,33.02-4.92,50.2.05,7.24.46,14.57.21,21.8-3.6,41.28-.44,82.87,9.35,123.17,3.03,17.6,7.7,34.63,13.07,52.05,3.19,10.99,7.37,27.32,21.96,23.37,41.69-11.2,86.22-19.45,127.45-28.21,24-5.84,48.71-11.88,72.9-16.23,25.01-3.05,48.86-10.16,73.36-14.02,14.11-2.95,28.55-9.6,43.26-8.98,4.75.8-4.96,3.84-5.16,4.59,5.76,1.91,19.04-2.74,22.98,5.86,1.17,11.41-16.88,9.31-24.6,10.03-12.15.31-24.59,1.43-36.86,2.47-19.27,1.85-37.36,6.78-56.35,10.84-18,3.06-36.21,5.56-54,8.66-19.34,2.78-38.07,8.14-57.03,12.51-18.34,3.84-37.08,6-54.84,11.75-15.5,4.13-31.24,6.64-46.31,11.76-6.83,1.92-11.19,4.88-9.8,12.19,2.79,12.62,8.94,25.08,14.26,36.79,4.29,9.54,13.33,18.02,15.99,28.54,2.25,7.27,1.08,21.99-7.75,22.34-11.82-2.58-17.01-17.09-24.86-25.24-11.48-14.31-23.23-28.53-35.02-42.83-5.29-6.39-11.53-13.84-20.32-14.11-15.29.66-30.74,5.73-45.36,9.79-17.2,3.53-33.68,10.22-50.73,14.07-9.38,1.91-18.43,5.61-27.7,8.11-9.95,2.57-19.53,4.19-29.67,7.06-15.37,3.21-31.07,10.51-45.77,14.53-14.65,2.28-27.93,8.27-41.74,13.49-14.88,4.6-29.61,8.7-44.78,12.86-17.85,5.42-36.35,11.28-53.63,17.79-16.11,6.49-36.57,10.09-51.6,19.1-10.03,10.29-.83,25.95,6.88,35.23,15.96,21.61,31.49,43.3,46.31,65.59,12.61,15.94,22.86,33.38,33.7,50.5,39.63,54.06,76.97,109.51,116.44,164.08,3.72,6.29,12.83,14.34,10.27,21.33-2.9,4.78-11.63.76-15.8-3.01-7.06-6.14-12.25-14.48-17.64-22.14-19.5-27.07-36.77-56.37-55.02-84.46-37.71-58.19-79.34-115.1-123.93-168.42-3.69-4.1-8.66-9.54-4.47-1.49,25.09,42.79,56.19,82.8,83.74,124.2,9.02,15.43,21.84,30.65,22.11,49.16-.51,10.86-11.37,13.61-18.68,5.65-7.26-7.14-12.4-17.6-17.73-25.93-9.61-15.18-20.4-30.18-30.5-44.88-27.96-40.45-55.75-80.91-85.56-119.84-8.39-12.84-12.79-9.02-16.43,3.57-3.22,11.34-6.7,22.78-9.18,33.96-2.75,9-1.89,34.56-14.21,33.55-12.35-8.48-.22-33.6-2.69-46.3-2.77-6.62-9.98,13.59-11.55,16.06-4.49,9.39-9.54,18.81-15.11,27.77-3.72,7.1-15.38,14.26-16.52,1.01.4-14.02,5.14-27.89,7.87-41.68,9.89-31.16,16.16-29.9-22.92-15.03-12.3,5.61-25.25,10.38-37.04,16.93-9.56,7.16-16.08,17.71-27.13,23.29-17.31,9.21-36.02,16.54-53.53,25.75-18.25,9.3-36.01,20.47-53.9,30.24-7.67,4.02-15.98,8.92-24.67,9.29-7.04.35-13.6-4.33-10.92-11.09,2.94-6.55,10.37-9.98,16.21-14.45,8.11-5.75,15.77-12.84,23.92-18.25,13.4-7.68,29.48-9.63,43.12-17.46,48.69-24.67,99.14-46.32,149.96-66.52,14.7-5.13,16.73-17.89,20.12-31.05,2.08-6.81,7.47-12.27,10.04-18.71,2.4-9.63-8.08-19.82-11.07-29.51-4.86-9.94-8.6-20.93-14.76-29.94-9.31-11.15-28.09,1.41-40.31,2.05-10.08,1.81-24.83,4.11-28.49-6.85-1.8-10.92,52.41-27.82,62.44-32.89,26.44-9.47,51.28-22.27,76.7-33.88,13.77-4.89,26.03-12.29,39.92-17.62,14.07-4.31,26.73-12.15,40.01-17.92,10.88-3.65,20.68-11.45,31.73-15.49,15.01-4.57,28.16-11.85,42.16-18.36,7.45-3.67,20.72-5.78,25.21-12.46-2.82-2.87-11.79-.59-16.41-.27-19.14,3.04-39,7.04-57.55,11.99-10.99,2.62-22.08,7.71-30.17,15.51-4.3,4.49-6,9.92-8.92,14.94-7.53,11.94-17.55-.91-24.01-6.74-2.12-1.59-4.77-2.12-7.07-.63-7.53,5.67-7.48,17.19-13.67,23.74-14.81,12.54-19.85-19.4-37.46-11.92-32.67,11.24-66.06,20.12-98.17,33.44-10.86,5.1-20.8,11.74-32.27,15.13-9.74,2.93-24.69,3.41-30.24-5.39-.37-6.5,11.56-8.83,16.58-11.82,18.7-9.53,38.93-16.01,58.89-22.04,24.83-10.02,51.22-19.09,76.21-28.99,26.12-7.24,8.22-27.23,23.51-36.69,10.55-2.15,10.13,14.08,16.33,18.09,4.65,1.73,8.89-2.94,10.77-7.26,2.68-5.88,1.43-14.01,5.93-18.69,10.89-8.13,15.59,5.34,20.37,12.19,4.72,5.03,12.11,1.97,17.9-.08,39.77-15.24,82.66-26.07,122.15-43.68,30.71-14.34-25.01-9.86-33.33-9.82-65.28,5.37-128.38,23.65-191.66,39.64-22.41,6.31-44.22,13.79-65.98,21.91-5.54,1.96-30.46,10.03-15.62,13.01,14,.57,28.79-5.73,42.73-2.83,16.28,3.97,5.55,11.69-5.37,10.92-17.69-.19-34.96,2.64-52,7.44-18.76,5.04-38.51,8.54-57.29,14.3-18.01,4.62-34.64,15.5-53.24,17.25-5.56.4-16.47-1.14-15.58-7.39.94-3.06,8.08-6.63,12.18-8.18,5.78-2.36,11.35-5.25,17.23-8.08,61.9-27.63,126.21-47.96,190.53-68.58,75.62-20.37,153.23-42,232.1-39.81,9.74,1.27,20.71,2.24,29.44,6.58,13.12,7.66-2.7,17.57-11.41,20.12-32.5,11.82-64.93,22.95-97.69,33.53-6.42,2.67-15.37,4.76-19.85,9.48,2.58,1.22,7.54-.59,10.96-.94,24.17-4.67,48.46-9.55,73.02-12.27,31.15-1.27,30.17-3.1,51.48-23.03,11.68-7.24,21.88-.9,29.87-15.97,4.91-9.28,12.32-33.67,24.94-19.97,5.33,6.88,3.04,23.32,14.81,23.08,6.62-.19,13.26-3.41,19.66-5.74,6.38-2.67,13.18-5.57,16.46-10.23,4.46-5.95,2.96-15.14,9.83-19.42,9.17-4.8,20.06-6,30.13-9.09,15.51-4.67,48.06-8.07,40.32,17.74-9.14,21.19-31.18,33.33-47.67,48.22-16.41,13.25-21.06-6.61-33.49-10.99-6.91-1.33-12.61,3.36-19.49,6.94-5.51,2.75-9.79,7.05-12.36,12.59-1.99,3.89-4.88,7.42-9.64,6.4-12.16-3.74-25.68-3.81-37.87.42-6.47,2.67-11.63,8.49-18.31,11.33-11.92,3.53-21.92,10.04-31.14,18.36-9.33,6.84-19.2,13.7-29.01,19.63-44.57,23.1-89.87,44.34-136.17,64.73-21.52,9.2-45.25,19.19-68.9,26.67-6.74,2.64-16.7,3.98-18.29,11.8-.48,6.36,4.1,18.94,10.42,19.96,2.91-.39,4.85-3.01,7.2-4.74,7.07-7.43,14.82,1,18.87,7.35,8.37,11.81,14.78,25.75,22.15,38.3,7.2,14.86,16.72,19.17,32.43,12.88,122.46-41.43,248.95-80.82,375.03-112.26,16.83-3.76,4.86-19.06-4.57-22.44-14.04-3.03-36.84,7.7-50.08,13.1-20.67,8.72-41.87,19.15-64.14,23.27-14.36,1.59-15.65-8.36-2.84-13.17,25.65-9.85,52.75-15.7,78.27-26,26.65-7.44,9.51-32.75,27.31-36.71,9.86.23,15.45,11.09,21.62,17.53,6.33,7.12,13.34,13.99,19.17,21.11,4.88,6.76,16.3,16.74,22.79,6.66,4.42-10.71-3.25-24.72-5.47-35.5-4.18-14.58-8.28-29.32-11.01-44.69-5.16-40.63-11.78-81.29-8.46-122.5,3.44-33.04,3.02-67.06,11.29-99.61,2.35-12.76,11.52-46.84,22.57-50.18l.07.02h-.02ZM704.28,198.07c-6.5-4.34-16.79,3.19-23.15,6.04-2.16,1.09-4.44,2.42-6.17,4.02-5.38,4.15-3.14,14.75,4.05,14.9,4.48.04,10.33-5.32,14.41-8.67,3.34-3.12,14.38-11.77,10.95-16.19l-.1-.1h.01ZM500.12,285.28c-.84-1.21-3.27-.36-6.45.87-22.53,10.59-46.67,21.97-68.05,31.1-9.8,3.83-18.84,9.04-28.78,12.94-6.24,2.48-12.94,4.37-19.14,7.01-9.41,3.86-18.44,8.18-27.78,12.26-29.54,13.42-61.15,25.53-90.03,40.57-7.05,4.74-5.83,9.26,2.67,7.85,54.48-14.83,106.37-41.84,157.45-65.14,17.49-8.1,34.75-16.62,51.59-26.18,6.38-4.04,27.83-14.69,28.54-21.23l-.02-.06h0ZM798.56,401.62c1.52-2.52-.38-6.54-1.18-9.3-2.74-7.66-5.56-15.18-12.26-18.27-2.84-1.23-6.92-2.05-9.25.34-1.88,3.15.8,6.03,3.21,9.42,3.34,3.91,13.95,20.64,19.4,17.89l.07-.08h0ZM285.35,451.71c-5.46,1.25,1.74,14.96,3.03,18.33,2.14,4.69,3.34,9.65,5.83,14.22,8.18,13.72,10.51,6.98,5.49-4.43-2.38-5.91-4.77-10.89-7.13-16.66-1.36-3.21-2.73-6.96-4.78-9.68-.82-1.06-1.62-1.68-2.32-1.77h-.12ZM284.14,499.03c-3.64-2.24-8.42,5.93-10.56,8.85-2.23,2.8-5.29,8.32-3.22,11.08,2.93,3.23,8.31-.91,10.7-3.29,4.49-4.4,8.31-11.89,3.2-16.55l-.13-.08h0Z"/>
  <path class="st0" d="M503.1,48.22c2.79-3.17,1.44-7.87.71-11.67-1.02-4.46-1.94-9.2-3.29-13.62-2.05-6.17-3.25-14.37,2.8-18.63,8.56-5.86,14.38,3.84,16.28,11.4,1.65,4.25,2.02,19.18,9.43,14.75,3.9-2.57,7.39-7.69,11.65-9.67,6.08-3.12,10.47,1.72,9.68,8.05-.27,4.2-2.82,8.65-4.62,12.26-2.41,4.41-1.54,7.03,3.97,7.29,9.42.45,23.58-2.97,30.45-.07,3.68,1.26,4.97,5.61,2.07,8.5-6.38,5.93-15.94,5.57-24.09,8.36-6.44,2.19-15.7,3.18-20.72,6.6-4.14,2.7-4.66,7.87-4.18,12.45.52,5.53,1.28,11.16,2.27,16.68,1.19,7.12,5.37,19.69-1.55,23.96-9.13,2.89-13.89-19.4-17.43-25.39-1.37-2.58-3.2-5.14-6.24-4.32-6.87,2.07-13.45,15.37-22.16,16.81-5.5,1.39-7.8-2.97-4.53-8.12,2.58-3.94,5.49-7.18,8.15-11.3,2.6-3.71,4.84-7.41,7.11-11.09,1.74-3.08,5.96-9.1,2.28-10.31-5.3-1.14-12.91.89-18.35-1.54-6.53-2.06-6.47-9.39-1.18-13.64,5.8-5.03,15.72-2.98,21.38-7.6l.11-.11v-.03Z"/>
  <path class="st0" d="M508.65,393.73c8.08,3.35.1,7.57-5.01,8.97-31.91,8.8-60.01,29.15-88.45,44.99-13.56,7.51-30.1,15.46-45.6,9.38-17.2-7.76-5.88-27.77-.95-40.29,2.65-5.96,5.22-11.94,11.68-13.08,6.55-.93,9.89,5.52,8.36,11.22-.79,7.16-11.15,21.57-4.33,27.35,6.48,3.16,14.94-3.57,20.64-6.57,9.71-5.66,19.5-11.39,29.55-16.32,16.08-7.26,31.4-17.12,48.28-22.02,7.93-2.4,17.49-6.13,25.66-3.68l.16.06h.01Z"/>
  <path class="st0" d="M664.43,325.59c4.44,5.23-8.43,10.21-12.58,11.37-3.24,1.31-13.62,3.93-14.22,6.79.04.27.27.52.65.75,1.94.95,3.77,1.13,5.96,1.9,11.16,3.28,5.17,9.92-2.58,12.54-9.23,3.36-19.28,5.72-28.83,9.08-6.02,1.79-11.54,4.57-17.73,5.07-9.05.7-13.8-6.41-4.13-11.1,3.57-1.76,9.43-3.78,11.1-5.27,2.13-2.02-.88-2.06-4.65-1.53-7.13.71-14.03,5.2-20.71,3.67-3.94-.97-6.87-3.07-5.61-6.31,1.78-3.64,7.61-5.03,11.41-6.34,10.15-3.07,20.48-6.76,30.59-10.34,6.66-2.1,12.84-3.13,19.3-5.8,9.04-3.92,22.93-10.42,31.91-4.58l.1.09h.02Z"/>
  <path class="st0" d="M532.33,359.75c7.01,1.16,8.47,9.87,10.79,15.69,1.51,4.62,3.34,9.08,5.69,13.25,3.33,5.77,4.18,12.41-3.55,11.46-7.77-1.61-16.27-7.5-20.27-14.29-2.75-5.27-4.59-12.76-3.05-17.97,1.21-4.55,5.33-8.55,10.22-8.16l.17.02h0Z"/>
</svg>